<?xml version="1.0" standalone="no"?>
<!DOCTYPE svg PUBLIC "-//W3C//DTD SVG 20010904//EN"
 "http://www.w3.org/TR/2001/REC-SVG-20010904/DTD/svg10.dtd">
<svg version="1.0" xmlns="http://www.w3.org/2000/svg"
 width="1000.000000pt" height="1066.000000pt" viewBox="0 0 1000.000000 1066.000000"
 preserveAspectRatio="xMidYMid meet">

<g transform="translate(0.000000,1066.000000) scale(0.100000,-0.100000)"
fill="#000000" stroke="none">
<path d="M5152 10430 c-218 -13 -593 -69 -676 -101 -28 -10 -68 -19 -89 -19
-21 0 -50 -6 -65 -14 -15 -7 -79 -30 -142 -49 -63 -19 -151 -49 -195 -67 -44
-17 -98 -37 -120 -44 -58 -20 -377 -178 -470 -234 -281 -169 -435 -283 -710
-527 -193 -171 -451 -481 -631 -758 -103 -159 -314 -556 -314 -591 0 -6 -23
-70 -51 -141 -28 -72 -60 -161 -71 -200 -101 -351 -141 -584 -167 -975 l-9
-135 -64 -135 c-34 -75 -71 -156 -82 -180 -10 -25 -29 -67 -41 -95 -13 -27
-37 -84 -55 -125 -17 -41 -49 -116 -71 -167 -21 -50 -48 -107 -59 -125 -11
-18 -20 -38 -20 -45 0 -7 -18 -48 -39 -93 -22 -44 -45 -96 -51 -115 -6 -19
-27 -65 -46 -101 -19 -36 -34 -70 -34 -76 0 -5 -6 -24 -14 -41 -267 -594 -265
-590 -242 -671 17 -56 68 -119 115 -139 17 -7 136 -12 351 -14 179 -2 331 -5
337 -8 10 -3 13 -273 13 -1300 0 -1301 3 -1412 36 -1560 42 -184 180 -397 328
-508 157 -118 309 -183 481 -206 101 -14 2347 -15 2486 -1 123 12 209 38 336
103 168 85 324 238 426 414 26 46 47 87 47 92 0 4 15 53 33 107 l32 99 3 1966
2 1967 38 25 c21 13 63 37 92 52 83 42 193 154 250 256 69 122 80 168 80 326
l0 133 -55 116 c-48 101 -65 126 -135 199 -59 60 -101 92 -156 121 -127 65
-115 13 -114 523 0 299 4 448 11 460 6 9 46 32 88 51 144 65 305 258 346 418
9 35 15 103 15 179 0 106 -3 132 -25 190 -48 130 -109 220 -207 305 -70 61
-165 118 -195 118 -11 0 -42 10 -69 23 -43 19 -64 22 -169 21 -96 -1 -132 -5
-179 -22 -33 -12 -69 -22 -81 -22 -44 0 -201 -117 -273 -204 -98 -118 -139
-225 -148 -391 -8 -134 3 -183 78 -333 45 -90 62 -112 127 -171 47 -42 108
-84 159 -110 59 -29 86 -49 92 -67 6 -15 10 -205 10 -459 l0 -434 -27 -19
c-16 -11 -59 -36 -98 -56 -99 -52 -204 -159 -259 -262 -72 -136 -81 -170 -81
-329 l0 -140 64 -128 c55 -111 73 -135 136 -195 41 -39 99 -82 135 -100 35
-18 78 -43 97 -58 l34 -25 -7 -1917 c-6 -1788 -8 -1921 -24 -1982 -54 -202
-182 -338 -383 -407 l-82 -28 -1195 0 -1195 0 -79 23 c-159 46 -303 182 -363
343 l-28 74 -2 1485 c-2 1326 -4 1489 -18 1527 -24 61 -52 93 -109 119 -49 23
-59 24 -307 24 -305 0 -297 -3 -251 92 17 35 74 162 127 283 54 121 112 249
130 285 18 36 38 83 45 105 7 22 28 70 46 107 19 37 34 72 34 78 0 6 20 53 45
106 25 52 45 97 45 100 0 4 37 88 112 254 100 220 105 241 113 470 3 96 10
191 15 210 5 19 14 84 20 143 6 60 17 128 25 150 8 23 30 107 50 186 20 80 49
179 65 220 15 42 31 87 35 101 24 90 157 366 251 521 31 52 66 110 77 129 24
40 114 166 183 255 54 71 230 271 294 335 57 57 269 238 336 287 278 204 380
265 664 400 131 63 189 86 305 124 39 12 84 29 100 37 17 9 55 21 85 28 118
26 197 46 250 64 30 10 96 20 145 24 50 3 113 12 140 21 119 38 787 39 930 1
33 -8 103 -20 155 -25 98 -10 391 -83 515 -128 39 -14 111 -40 161 -58 141
-51 323 -138 499 -240 364 -211 746 -541 980 -847 95 -125 265 -368 265 -380
0 -4 15 -31 33 -60 58 -92 227 -450 227 -481 0 -5 6 -23 14 -40 32 -70 76
-189 76 -205 0 -18 52 -228 68 -277 6 -16 13 -66 17 -110 3 -44 13 -105 22
-135 13 -45 16 -117 16 -425 0 -232 -4 -396 -12 -440 -6 -38 -15 -106 -21
-150 -21 -178 -146 -601 -230 -780 -134 -285 -195 -397 -305 -559 -78 -116
-260 -347 -391 -496 -173 -199 -384 -526 -454 -705 -13 -33 -38 -89 -55 -125
-61 -125 -163 -470 -202 -685 l-26 -140 -4 -1126 -5 -1125 40 -50 c68 -86 149
-110 242 -72 67 28 113 85 130 160 8 38 11 302 10 938 -3 1246 5 1349 140
1760 54 163 129 327 227 498 95 165 163 260 319 442 252 295 426 533 530 727
26 48 60 110 76 136 16 27 37 69 47 95 10 26 44 101 74 167 52 115 167 441
181 515 10 53 35 156 58 240 11 41 24 125 28 185 5 61 14 126 20 145 7 20 13
141 17 290 9 464 -31 792 -147 1200 -11 36 -24 84 -30 107 -6 23 -15 45 -20
48 -6 3 -10 18 -10 33 0 15 -10 45 -21 67 -12 22 -30 66 -41 99 -23 68 -183
395 -252 511 -148 252 -212 339 -462 632 -240 279 -579 558 -929 763 -49 29
-106 63 -125 76 -19 13 -57 33 -85 45 -27 11 -100 45 -162 75 -61 29 -129 60
-150 68 -301 110 -470 166 -505 166 -11 0 -57 11 -102 25 -73 22 -192 42 -436
74 -208 28 -467 35 -708 21z m386 -1741 c86 -43 127 -94 141 -175 14 -76 5
-118 -38 -186 -65 -103 -210 -141 -315 -82 -49 27 -112 93 -128 134 -5 13 -10
49 -10 80 -2 144 108 252 263 259 14 0 53 -13 87 -30z m13 -2208 c55 -31 115
-98 125 -138 4 -13 4 -56 2 -97 -3 -64 -8 -81 -34 -118 -88 -122 -270 -145
-371 -47 -65 63 -86 115 -81 203 4 86 30 133 105 186 81 59 165 62 254 11z"/>
<path d="M4090 8031 c-156 -26 -278 -88 -385 -196 -96 -96 -141 -175 -180
-311 -36 -126 -37 -213 -5 -309 72 -218 161 -330 338 -425 66 -35 104 -62 107
-75 3 -11 6 -279 8 -595 l3 -575 30 -90 c29 -86 156 -348 317 -654 39 -75 100
-192 135 -261 35 -69 88 -170 117 -225 105 -200 95 -55 95 -1414 l0 -1188 28
-42 c36 -54 87 -88 145 -96 69 -11 109 1 165 45 41 33 54 51 71 102 21 61 21
72 21 1192 0 961 -3 1142 -15 1201 -8 38 -15 84 -15 100 0 17 -9 48 -19 69
-11 21 -23 52 -27 69 -3 18 -10 37 -14 42 -11 15 -153 290 -340 660 -92 182
-185 365 -208 407 -26 51 -43 100 -50 145 -8 53 -11 1086 -3 1125 0 3 40 26
87 50 61 31 108 64 164 118 69 67 85 88 136 193 56 116 57 119 62 220 8 186
-24 298 -126 440 -85 118 -211 210 -352 255 -72 23 -219 34 -290 23z m225
-458 c59 -38 89 -80 110 -150 14 -46 14 -57 0 -109 -23 -89 -59 -133 -135
-168 -75 -35 -150 -35 -216 0 -66 34 -86 55 -118 117 -54 108 -28 217 73 296
54 43 81 51 166 48 60 -2 78 -7 120 -34z"/>
<path d="M6590 8030 c-161 -21 -344 -131 -448 -270 -72 -96 -117 -222 -127
-350 -10 -129 6 -203 71 -332 72 -144 152 -226 279 -288 47 -23 91 -51 98 -63
9 -17 11 -152 7 -588 l-5 -567 -157 -313 c-87 -173 -219 -433 -295 -579 -75
-146 -151 -300 -169 -343 -64 -152 -64 -158 -64 -1431 0 -1271 -4 -1195 67
-1268 49 -50 109 -73 170 -64 65 9 137 57 162 110 21 42 21 52 21 1198 0 725
4 1175 10 1209 10 52 131 303 366 759 218 422 284 558 284 584 0 7 8 31 18 52
15 35 17 93 20 636 3 544 5 597 20 611 9 8 54 34 100 57 115 60 195 136 258
247 97 170 122 294 89 435 -42 180 -74 239 -194 358 -99 98 -164 139 -283 179
-67 23 -207 33 -298 21z m232 -456 c24 -17 61 -56 82 -87 36 -52 39 -60 38
-123 -1 -59 -6 -75 -36 -123 -48 -78 -109 -114 -198 -119 -58 -4 -76 0 -123
23 -72 35 -118 92 -137 172 -14 56 -14 67 0 110 28 88 85 149 160 174 15 4 59
7 99 6 62 -2 77 -6 115 -33z"/>
</g>
</svg>
